<svg xmlns="http://www.w3.org/2000/svg" xmlns:xlink="http://www.w3.org/1999/xlink" width="200" zoomAndPan="magnify" viewBox="0 0 150 30.000001" height="40" preserveAspectRatio="xMidYMid meet" version="1.0"><defs><g/><clipPath id="103d6ec444"><path d="M 5.324219 6.53125 L 35.082031 6.53125 L 35.082031 22.5 L 5.324219 22.5 Z M 5.324219 6.53125 " clip-rule="nonzero"/></clipPath></defs><g clip-path="url(#103d6ec444)"><path fill="#ffcd34" d="M 18.316406 14.515625 L 11.234375 22.5 L 5.34375 22.5 L 12.425781 14.515625 L 5.34375 6.53125 L 11.234375 6.53125 Z M 19.609375 6.53125 L 13.71875 6.53125 L 20.796875 14.515625 L 13.71875 22.5 L 19.609375 22.5 L 26.6875 14.515625 Z M 27.980469 6.53125 L 22.089844 6.53125 L 29.167969 14.515625 L 22.089844 22.5 L 27.980469 22.5 L 35.058594 14.515625 Z M 27.980469 6.53125 " fill-opacity="1" fill-rule="nonzero"/></g><g fill="#ffcd34" fill-opacity="1"><g transform="translate(36.847148, 21.411292)"><g><path d="M 1.59375 -0.871094 L 1.808594 -0.210938 L 2.425781 0.0625 L 2.851562 0 L 3.53125 0.0625 L 3.871094 0.0195312 L 4.507812 0.0195312 L 5.1875 -0.191406 L 5.378906 -0.808594 L 5.378906 -1.53125 L 5.421875 -1.914062 L 5.359375 -2.359375 L 5.402344 -3.722656 L 5.59375 -4.148438 L 5.996094 -4.378906 L 7.230469 -4.210938 L 7.65625 -3.847656 L 7.910156 -3.425781 L 8.082031 -3.042969 L 8.527344 -2.402344 L 8.933594 -1.636719 L 9.164062 -1.320312 L 9.335938 -0.894531 L 9.570312 -0.53125 L 10.039062 -0.148438 L 10.761719 0.0429688 L 12.441406 0.0195312 L 12.84375 0.0625 L 13.546875 0.0429688 L 13.949219 -0.148438 L 14.078125 -0.617188 L 13.84375 -1.085938 L 13.589844 -1.382812 L 13.417969 -1.785156 L 12.695312 -2.871094 L 12.503906 -3.253906 L 11.824219 -4.359375 L 11.570312 -4.679688 L 11.546875 -5.1875 L 11.738281 -5.65625 L 12.035156 -5.976562 L 12.335938 -6.230469 L 13.164062 -7.71875 L 13.441406 -8.953125 L 13.398438 -10.292969 L 13.332031 -10.71875 L 12.949219 -11.929688 L 12.78125 -12.292969 L 12.546875 -12.632812 L 11.335938 -13.90625 L 10.589844 -14.3125 L 9.78125 -14.589844 L 8.570312 -14.863281 L 7.890625 -14.886719 L 7.273438 -14.84375 L 5.996094 -14.84375 L 5.570312 -14.929688 L 5.144531 -14.929688 L 4.761719 -14.824219 L 4.339844 -14.824219 L 3.914062 -14.90625 L 3.445312 -14.929688 L 2.191406 -14.824219 L 1.808594 -14.609375 L 1.550781 -14.015625 L 1.574219 -9.144531 L 1.617188 -8.71875 L 1.550781 -7.867188 L 1.574219 -7.402344 L 1.574219 -6.976562 L 1.617188 -6.570312 L 1.574219 -6.167969 L 1.550781 -4.445312 L 1.59375 -4.019531 Z M 5.996094 -7.785156 L 5.570312 -8.015625 L 5.402344 -8.359375 L 5.402344 -9.632812 L 5.359375 -9.996094 L 5.402344 -10.886719 L 5.59375 -11.292969 L 6.039062 -11.460938 L 6.464844 -11.441406 L 7.316406 -11.527344 L 7.910156 -11.398438 L 8.464844 -11.355469 L 8.867188 -11.25 L 9.398438 -10.589844 L 9.527344 -10.25 L 9.613281 -9.699219 L 9.546875 -9.058594 L 9.355469 -8.632812 L 9.125 -8.316406 L 8.890625 -8.125 L 8.507812 -7.953125 L 7.890625 -7.804688 L 7.484375 -7.785156 L 6.464844 -7.824219 Z M 5.996094 -7.785156 "/></g></g></g><g fill="#ffcd34" fill-opacity="1"><g transform="translate(51.604267, 21.411292)"><g><path d="M 1.53125 -0.617188 L 1.808594 -0.210938 L 2.210938 0.0195312 L 7.019531 -0.0195312 L 7.402344 0.0429688 L 8.699219 -0.0195312 L 9.996094 0.0625 L 10.398438 0.0195312 L 10.847656 -0.191406 L 11.039062 -0.59375 L 11.078125 -1 L 11.058594 -2.316406 L 11.101562 -2.722656 L 10.824219 -3.148438 L 10.1875 -3.359375 L 7.378906 -3.402344 L 6.976562 -3.339844 L 6.507812 -3.382812 L 6.039062 -3.339844 L 5.59375 -3.59375 L 5.402344 -4.253906 L 5.421875 -5.296875 L 5.613281 -5.742188 L 5.996094 -5.976562 L 6.828125 -5.976562 L 7.25 -6.019531 L 8.378906 -5.953125 L 8.953125 -5.996094 L 9.398438 -5.953125 L 9.78125 -5.976562 L 10.207031 -6.210938 L 10.421875 -6.613281 L 10.464844 -8.292969 L 10.421875 -8.71875 L 10.230469 -9.125 L 9.867188 -9.355469 L 9.015625 -9.378906 L 8.589844 -9.335938 L 8.144531 -9.335938 L 7.65625 -9.378906 L 5.976562 -9.355469 L 5.613281 -9.589844 L 5.359375 -9.972656 L 5.316406 -10.632812 L 5.527344 -11.25 L 6.1875 -11.441406 L 10.273438 -11.460938 L 10.71875 -11.695312 L 10.953125 -12.078125 L 10.910156 -12.949219 L 10.847656 -13.355469 L 10.867188 -13.824219 L 10.929688 -14.226562 L 10.71875 -14.652344 L 10.273438 -14.84375 L 8.570312 -14.863281 L 8.1875 -14.824219 L 7.761719 -14.886719 L 6.828125 -14.84375 L 6.402344 -14.886719 L 5.570312 -14.863281 L 5.1875 -14.90625 L 2.402344 -14.84375 L 1.785156 -14.695312 L 1.574219 -14.226562 L 1.617188 -13.375 L 1.53125 -12.757812 L 1.617188 -11.675781 L 1.574219 -11.230469 L 1.617188 -10.847656 L 1.617188 -7.039062 L 1.550781 -6.59375 L 1.617188 -5.761719 L 1.574219 -4.914062 L 1.636719 -4.464844 L 1.59375 -3.996094 L 1.617188 -3.59375 L 1.550781 -3.210938 L 1.59375 -2.722656 L 1.59375 -2.296875 L 1.636719 -1.46875 L 1.617188 -1.042969 Z M 1.53125 -0.617188 "/></g></g></g><g fill="#ffcd34" fill-opacity="1"><g transform="translate(63.788459, 21.411292)"><g><path d="M 1.550781 -0.59375 L 1.765625 -0.191406 L 2.425781 0.0429688 L 4.761719 0.0195312 L 5.1875 -0.191406 L 5.464844 -0.851562 L 5.445312 -1.511719 L 5.488281 -1.957031 L 5.421875 -2.871094 L 5.445312 -3.273438 L 5.421875 -3.679688 L 5.464844 -4.125 L 5.65625 -4.570312 L 6.292969 -4.785156 L 9.613281 -4.804688 L 10.015625 -4.996094 L 10.25 -5.421875 L 10.230469 -5.890625 L 10.273438 -7.167969 L 10.207031 -7.570312 L 9.996094 -8.015625 L 9.355469 -8.230469 L 6.125 -8.230469 L 5.636719 -8.398438 L 5.402344 -8.78125 L 5.402344 -10.039062 L 5.464844 -10.484375 L 5.445312 -10.847656 L 5.65625 -11.269531 L 6.273438 -11.484375 L 6.890625 -11.460938 L 7.507812 -11.503906 L 8.550781 -11.441406 L 8.972656 -11.484375 L 9.847656 -11.441406 L 10.273438 -11.503906 L 10.675781 -11.695312 L 10.824219 -12.121094 L 10.824219 -12.527344 L 10.867188 -12.949219 L 10.824219 -13.355469 L 10.867188 -13.800781 L 10.824219 -14.25 L 10.613281 -14.652344 L 10.230469 -14.84375 L 9.71875 -14.90625 L 8.953125 -14.84375 L 8.507812 -14.863281 L 8.058594 -14.84375 L 7.65625 -14.886719 L 7.25 -14.84375 L 2.167969 -14.84375 L 1.765625 -14.632812 L 1.53125 -14.226562 L 1.617188 -11.675781 L 1.574219 -11.269531 L 1.550781 -8.25 L 1.617188 -7.867188 L 1.574219 -7.464844 L 1.574219 -7.039062 L 1.53125 -6.570312 L 1.617188 -5.910156 L 1.550781 -1.511719 L 1.59375 -1.019531 Z M 1.550781 -0.59375 "/></g></g></g><g fill="#ffcd34" fill-opacity="1"><g transform="translate(75.377263, 21.411292)"><g><path d="M 1.53125 -0.617188 L 1.808594 -0.210938 L 2.210938 0.0195312 L 7.019531 -0.0195312 L 7.402344 0.0429688 L 8.699219 -0.0195312 L 9.996094 0.0625 L 10.398438 0.0195312 L 10.847656 -0.191406 L 11.039062 -0.59375 L 11.078125 -1 L 11.058594 -2.316406 L 11.101562 -2.722656 L 10.824219 -3.148438 L 10.1875 -3.359375 L 7.378906 -3.402344 L 6.976562 -3.339844 L 6.507812 -3.382812 L 6.039062 -3.339844 L 5.59375 -3.59375 L 5.402344 -4.253906 L 5.421875 -5.296875 L 5.613281 -5.742188 L 5.996094 -5.976562 L 6.828125 -5.976562 L 7.25 -6.019531 L 8.378906 -5.953125 L 8.953125 -5.996094 L 9.398438 -5.953125 L 9.78125 -5.976562 L 10.207031 -6.210938 L 10.421875 -6.613281 L 10.464844 -8.292969 L 10.421875 -8.71875 L 10.230469 -9.125 L 9.867188 -9.355469 L 9.015625 -9.378906 L 8.589844 -9.335938 L 8.144531 -9.335938 L 7.65625 -9.378906 L 5.976562 -9.355469 L 5.613281 -9.589844 L 5.359375 -9.972656 L 5.316406 -10.632812 L 5.527344 -11.25 L 6.1875 -11.441406 L 10.273438 -11.460938 L 10.71875 -11.695312 L 10.953125 -12.078125 L 10.910156 -12.949219 L 10.847656 -13.355469 L 10.867188 -13.824219 L 10.929688 -14.226562 L 10.71875 -14.652344 L 10.273438 -14.84375 L 8.570312 -14.863281 L 8.1875 -14.824219 L 7.761719 -14.886719 L 6.828125 -14.84375 L 6.402344 -14.886719 L 5.570312 -14.863281 L 5.1875 -14.90625 L 2.402344 -14.84375 L 1.785156 -14.695312 L 1.574219 -14.226562 L 1.617188 -13.375 L 1.53125 -12.757812 L 1.617188 -11.675781 L 1.574219 -11.230469 L 1.617188 -10.847656 L 1.617188 -7.039062 L 1.550781 -6.59375 L 1.617188 -5.761719 L 1.574219 -4.914062 L 1.636719 -4.464844 L 1.59375 -3.996094 L 1.617188 -3.59375 L 1.550781 -3.210938 L 1.59375 -2.722656 L 1.59375 -2.296875 L 1.636719 -1.46875 L 1.617188 -1.042969 Z M 1.53125 -0.617188 "/></g></g></g><g fill="#ffcd34" fill-opacity="1"><g transform="translate(87.561455, 21.411292)"><g><path d="M 1.636719 -0.679688 L 1.785156 -0.210938 L 2.210938 0 L 2.617188 0.0195312 L 3.488281 -0.0429688 L 3.933594 0 L 4.570312 0 L 5.230469 -0.210938 L 5.378906 -0.617188 L 5.421875 -1.0625 L 5.335938 -1.511719 L 5.402344 -2.425781 L 5.359375 -3.742188 L 5.550781 -4.167969 L 5.976562 -4.378906 L 6.359375 -4.378906 L 6.742188 -4.402344 L 7.273438 -4.230469 L 7.613281 -3.871094 L 8.167969 -3.125 L 8.316406 -2.722656 L 8.910156 -1.660156 L 9.1875 -1.253906 L 9.378906 -0.894531 L 9.632812 -0.554688 L 10.058594 -0.171875 L 10.589844 -0.0429688 L 11.355469 0 L 11.824219 -0.0429688 L 12.25 0 L 13.101562 0 L 13.566406 -0.0429688 L 14.015625 -0.148438 L 14.097656 -0.59375 L 13.824219 -1.128906 L 13.140625 -2.167969 L 12.949219 -2.53125 L 12.695312 -2.914062 L 12.484375 -3.296875 L 12.207031 -3.636719 L 11.570312 -4.742188 L 11.503906 -5.253906 L 11.738281 -5.699219 L 12.335938 -6.273438 L 12.589844 -6.636719 L 12.738281 -7.039062 L 12.972656 -7.421875 L 13.121094 -7.785156 L 13.355469 -8.589844 L 13.375 -10.273438 L 13.269531 -10.675781 L 13.207031 -11.078125 L 13.101562 -11.503906 L 12.527344 -12.675781 L 12.226562 -12.992188 L 12.035156 -13.3125 L 10.972656 -14.121094 L 10.230469 -14.503906 L 8.464844 -14.863281 L 7.933594 -14.90625 L 7.316406 -14.886719 L 6.847656 -14.90625 L 6.421875 -14.863281 L 5.953125 -14.90625 L 5.59375 -14.863281 L 4.316406 -14.90625 L 3.914062 -14.84375 L 3.042969 -14.929688 L 2.636719 -14.863281 L 2.167969 -14.886719 L 1.765625 -14.695312 L 1.59375 -14.25 L 1.53125 -8.292969 L 1.59375 -7.675781 L 1.59375 -6.613281 L 1.550781 -6.167969 L 1.53125 -5.359375 L 1.59375 -4.890625 L 1.53125 -4.019531 L 1.617188 -2.785156 L 1.574219 -2.339844 Z M 5.976562 -7.824219 L 5.613281 -8.015625 L 5.402344 -8.464844 L 5.335938 -10.847656 L 5.59375 -11.269531 L 6.019531 -11.484375 L 6.359375 -11.503906 L 7.527344 -11.484375 L 8.507812 -11.355469 L 9.164062 -10.953125 L 9.378906 -10.632812 L 9.527344 -10.292969 L 9.570312 -9.675781 L 9.507812 -9.101562 L 9.335938 -8.675781 L 9.101562 -8.316406 L 8.847656 -8.058594 L 8.527344 -7.910156 L 6.867188 -7.761719 L 6.445312 -7.824219 Z M 5.976562 -7.824219 "/></g></g></g><g fill="#ffcd34" fill-opacity="1"><g transform="translate(102.297311, 21.411292)"><g><path d="M 7.953125 0.253906 L 9.144531 0.234375 L 10.421875 0.0625 L 12.015625 -0.46875 L 12.71875 -0.851562 L 13.035156 -1.105469 L 13.441406 -1.296875 L 14.035156 -1.808594 L 14.3125 -2.191406 L 14.609375 -2.488281 L 15.546875 -3.914062 L 15.863281 -4.722656 L 16.035156 -5.527344 L 16.054688 -5.910156 L 16.164062 -6.335938 L 16.183594 -6.785156 L 16.269531 -7.402344 L 16.203125 -8.464844 L 16.054688 -9.335938 L 15.523438 -10.929688 L 15.121094 -11.71875 L 14.652344 -12.355469 L 14.058594 -13.015625 L 13.441406 -13.546875 L 12.949219 -13.886719 L 12.3125 -14.164062 L 11.992188 -14.398438 L 10.355469 -14.90625 L 9.125 -15.121094 L 8.550781 -15.140625 L 6.292969 -14.824219 L 4.699219 -14.226562 L 4.378906 -13.992188 L 3.996094 -13.800781 L 3.273438 -13.269531 L 2.234375 -12.058594 L 1.574219 -10.929688 L 1.253906 -10.121094 L 0.894531 -8.484375 L 0.828125 -6.761719 L 0.894531 -6.316406 L 1 -5.933594 L 1.042969 -5.527344 L 1.234375 -4.722656 L 2.210938 -2.785156 L 2.46875 -2.53125 L 2.742188 -2.191406 L 3.0625 -1.894531 L 3.296875 -1.617188 L 3.996094 -1.0625 L 5.65625 -0.210938 L 6.273438 0 L 6.742188 0.0429688 L 7.507812 0.210938 Z M 9.144531 -3.507812 L 7.976562 -3.507812 L 7.507812 -3.574219 L 6.742188 -3.890625 L 6.402344 -4.082031 L 5.828125 -4.550781 L 5.550781 -4.847656 L 5.253906 -5.253906 L 5.144531 -5.59375 L 4.953125 -5.976562 L 4.785156 -6.761719 L 4.785156 -8.058594 L 4.890625 -8.441406 L 4.953125 -8.847656 L 5.125 -9.230469 L 5.253906 -9.613281 L 5.761719 -10.292969 L 6.828125 -11.015625 L 7.101562 -11.121094 L 7.933594 -11.335938 L 8.527344 -11.378906 L 9.546875 -11.25 L 9.929688 -11.164062 L 10.3125 -10.996094 L 10.972656 -10.527344 L 11.800781 -9.65625 L 12.058594 -8.847656 L 12.25 -8.441406 L 12.3125 -8.058594 L 12.269531 -6.761719 L 12.101562 -5.976562 L 11.953125 -5.59375 L 11.71875 -5.210938 L 11.589844 -4.890625 L 11.292969 -4.550781 L 10.273438 -3.847656 L 9.890625 -3.742188 L 9.570312 -3.59375 Z M 9.144531 -3.507812 "/></g></g></g><g fill="#ffcd34" fill-opacity="1"><g transform="translate(119.350927, 21.411292)"><g><path d="M 1.53125 -0.617188 L 1.808594 -0.210938 L 2.210938 0.0195312 L 7.019531 -0.0195312 L 7.402344 0.0429688 L 8.699219 -0.0195312 L 9.996094 0.0625 L 10.398438 0.0195312 L 10.847656 -0.191406 L 11.039062 -0.59375 L 11.078125 -1 L 11.058594 -2.316406 L 11.101562 -2.722656 L 10.824219 -3.148438 L 10.1875 -3.359375 L 7.378906 -3.402344 L 6.976562 -3.339844 L 6.507812 -3.382812 L 6.039062 -3.339844 L 5.59375 -3.59375 L 5.402344 -4.253906 L 5.421875 -5.296875 L 5.613281 -5.742188 L 5.996094 -5.976562 L 6.828125 -5.976562 L 7.25 -6.019531 L 8.378906 -5.953125 L 8.953125 -5.996094 L 9.398438 -5.953125 L 9.78125 -5.976562 L 10.207031 -6.210938 L 10.421875 -6.613281 L 10.464844 -8.292969 L 10.421875 -8.71875 L 10.230469 -9.125 L 9.867188 -9.355469 L 9.015625 -9.378906 L 8.589844 -9.335938 L 8.144531 -9.335938 L 7.65625 -9.378906 L 5.976562 -9.355469 L 5.613281 -9.589844 L 5.359375 -9.972656 L 5.316406 -10.632812 L 5.527344 -11.25 L 6.1875 -11.441406 L 10.273438 -11.460938 L 10.71875 -11.695312 L 10.953125 -12.078125 L 10.910156 -12.949219 L 10.847656 -13.355469 L 10.867188 -13.824219 L 10.929688 -14.226562 L 10.71875 -14.652344 L 10.273438 -14.84375 L 8.570312 -14.863281 L 8.1875 -14.824219 L 7.761719 -14.886719 L 6.828125 -14.84375 L 6.402344 -14.886719 L 5.570312 -14.863281 L 5.1875 -14.90625 L 2.402344 -14.84375 L 1.785156 -14.695312 L 1.574219 -14.226562 L 1.617188 -13.375 L 1.53125 -12.757812 L 1.617188 -11.675781 L 1.574219 -11.230469 L 1.617188 -10.847656 L 1.617188 -7.039062 L 1.550781 -6.59375 L 1.617188 -5.761719 L 1.574219 -4.914062 L 1.636719 -4.464844 L 1.59375 -3.996094 L 1.617188 -3.59375 L 1.550781 -3.210938 L 1.59375 -2.722656 L 1.59375 -2.296875 L 1.636719 -1.46875 L 1.617188 -1.042969 Z M 1.53125 -0.617188 "/></g></g></g><g fill="#ffcd34" fill-opacity="1"><g transform="translate(131.535119, 21.411292)"><g><path d="M 6.167969 0.171875 L 6.785156 0.234375 L 7.464844 0.210938 L 9.546875 -0.191406 L 10.65625 -0.785156 L 11.335938 -1.253906 L 11.929688 -1.933594 L 12.355469 -2.617188 L 12.527344 -3 L 12.652344 -3.425781 L 12.71875 -3.804688 L 12.738281 -5.125 L 12.675781 -5.550781 L 12.566406 -5.953125 L 12.144531 -6.742188 L 11.632812 -7.402344 L 11.269531 -7.699219 L 10.144531 -8.207031 L 8.398438 -8.632812 L 6.253906 -8.910156 L 5.359375 -9.230469 L 5.039062 -9.398438 L 4.699219 -9.738281 L 4.679688 -10.3125 L 4.742188 -10.867188 L 4.976562 -11.164062 L 5.335938 -11.441406 L 5.636719 -11.570312 L 6.019531 -11.652344 L 7.378906 -11.695312 L 7.847656 -11.527344 L 8.167969 -11.269531 L 8.867188 -10.527344 L 9.527344 -10.3125 L 10.929688 -10.273438 L 11.3125 -10.3125 L 11.71875 -10.273438 L 12.121094 -10.527344 L 12.3125 -10.929688 L 12.144531 -11.761719 L 11.800781 -12.527344 L 11.527344 -12.867188 L 11.3125 -13.207031 L 11.039062 -13.523438 L 9.675781 -14.460938 L 8.507812 -14.863281 L 8.058594 -14.949219 L 7.675781 -14.992188 L 7.210938 -15.097656 L 6.019531 -15.078125 L 4.339844 -14.738281 L 3.957031 -14.589844 L 3.617188 -14.375 L 3.273438 -14.25 L 2.851562 -13.992188 L 2.550781 -13.714844 L 2.167969 -13.460938 L 1.933594 -13.101562 L 1.660156 -12.824219 L 1.511719 -12.441406 L 1.296875 -12.101562 L 1 -10.867188 L 1.019531 -9.441406 L 1.167969 -8.847656 L 1.445312 -8.101562 L 1.976562 -7.402344 L 2.574219 -6.847656 L 3.316406 -6.402344 L 4.53125 -5.996094 L 5.296875 -5.828125 L 7.039062 -5.699219 L 7.421875 -5.636719 L 7.847656 -5.613281 L 8.613281 -5.296875 L 8.910156 -5.039062 L 9.015625 -4.488281 L 8.890625 -3.933594 L 8.550781 -3.636719 L 8.207031 -3.445312 L 7.421875 -3.210938 L 6.828125 -3.191406 L 6.1875 -3.234375 L 5.699219 -3.359375 L 5.378906 -3.507812 L 4.996094 -3.742188 L 4.679688 -4.039062 L 4.359375 -4.464844 L 3.933594 -4.636719 L 2.316406 -4.679688 L 1.894531 -4.636719 L 1.46875 -4.65625 L 1.042969 -4.464844 L 0.894531 -4.019531 L 0.9375 -3.550781 L 1.019531 -3.167969 L 1.359375 -2.316406 L 1.894531 -1.660156 L 2.507812 -1.042969 L 2.871094 -0.808594 L 4.402344 -0.105469 L 4.871094 -0.0429688 L 5.273438 0.105469 Z M 6.167969 0.171875 "/></g></g></g></svg>